HIERARCHY
ROOT Hips
{
	OFFSET 0.000000 0.000000 0.000000
	CHANNELS 6 Xposition Yposition Zposition Zrotation Yrotation Xrotation 
	JOINT LHipJoint
	{
		OFFSET 0.000000 0.000000 0.000000
		CHANNELS 3 Zrotation Yrotation Xrotation
		JOINT LeftUpLeg
		{
			OFFSET 1.363060 -1.794630 0.839290
			CHANNELS 3 Zrotation Yrotation Xrotation
			JOINT LeftLeg
			{
				OFFSET 2.448110 -6.726130 0.000000
				CHANNELS 3 Zrotation Yrotation Xrotation
				JOINT LeftFoot
				{
					OFFSET 2.562200 -7.039590 0.000000
					CHANNELS 3 Zrotation Yrotation Xrotation
					JOINT LeftToeBase
					{
						OFFSET 0.157640 -0.433110 2.322550
						CHANNELS 3 Zrotation Yrotation Xrotation
						End Site
						{
							OFFSET 0.000000 0.000000 0.000000
						}
					}
				}
			}
		}
	}
	JOINT RHipJoint
	{
		OFFSET 0.000000 0.000000 0.000000
		CHANNELS 3 Zrotation Yrotation Xrotation
		JOINT RightUpLeg
		{
			OFFSET -1.305520 -1.794630 0.839290
			CHANNELS 3 Zrotation Yrotation Xrotation
			JOINT RightLeg
			{
				OFFSET -2.542530 -6.985550 0.000000
				CHANNELS 3 Zrotation Yrotation Xrotation
				JOINT RightFoot
				{
					OFFSET -2.568260 -7.056230 0.000000
					CHANNELS 3 Zrotation Yrotation Xrotation
					JOINT RightToeBase
					{
						OFFSET -0.164730 -0.452590 2.363150
						CHANNELS 3 Zrotation Yrotation Xrotation
						End Site
						{
							OFFSET 0.000000 0.000000 0.000000
						}
					}
				}
			}
		}
	}
	JOINT LowerBack
	{
		OFFSET 0.000000 0.000000 0.000000
		CHANNELS 3 Zrotation Yrotation Xrotation
		JOINT Spine
		{
			OFFSET 0.028270 2.035590 -0.193380
			CHANNELS 3 Zrotation Yrotation Xrotation
			JOINT Spine1
			{
				OFFSET 0.056720 2.048850 -0.042750
				CHANNELS 3 Zrotation Yrotation Xrotation
				JOINT Neck
				{
					OFFSET 0.000000 0.000000 0.000000
					CHANNELS 3 Zrotation Yrotation Xrotation
					JOINT Neck1
					{
						OFFSET -0.054170 1.746240 0.172020
						CHANNELS 3 Zrotation Yrotation Xrotation
						JOINT Head
						{
							OFFSET 0.104070 1.761360 -0.123970
							CHANNELS 3 Zrotation Yrotation Xrotation
							End Site
							{
								OFFSET 0.000000 0.000000 0.000000
							}
						}
					}
				}
				JOINT LeftShoulder
				{
					OFFSET 0.000000 0.000000 0.000000
					CHANNELS 3 Zrotation Yrotation Xrotation
					JOINT LeftArm
					{
						OFFSET 3.362410 1.200890 -0.311210
						CHANNELS 3 Zrotation Yrotation Xrotation
						JOINT LeftForeArm
						{
							OFFSET 4.983000 -0.000000 -0.000000
							CHANNELS 3 Zrotation Yrotation Xrotation
							JOINT LeftHand
							{
								OFFSET 3.483560 -0.000000 -0.000000
								CHANNELS 3 Zrotation Yrotation Xrotation
								JOINT LeftFingerBase
								{
									OFFSET 0.000000 0.000000 0.000000
									CHANNELS 3 Zrotation Yrotation Xrotation
									JOINT LeftHandIndex1
									{
										OFFSET 0.715260 -0.000000 -0.000000
										CHANNELS 3 Zrotation Yrotation Xrotation
										End Site
										{
											OFFSET 0.000000 0.000000 0.000000
										}
									}
								}
								JOINT LThumb
								{
									OFFSET 0.000000 0.000000 0.000000
									CHANNELS 3 Zrotation Yrotation Xrotation
									End Site
									{
										OFFSET 0.000000 0.000000 0.000000
									}
								}
							}
						}
					}
				}
				JOINT RightShoulder
				{
					OFFSET 0.000000 0.000000 0.000000
					CHANNELS 3 Zrotation Yrotation Xrotation
					JOINT RightArm
					{
						OFFSET -3.136600 1.374050 -0.404650
						CHANNELS 3 Zrotation Yrotation Xrotation
						JOINT RightForeArm
						{
							OFFSET -5.241900 -0.000000 -0.000000
							CHANNELS 3 Zrotation Yrotation Xrotation
							JOINT RightHand
							{
								OFFSET -3.444170 -0.000000 -0.000000
								CHANNELS 3 Zrotation Yrotation Xrotation
								JOINT RightFingerBase
								{
									OFFSET 0.000000 0.000000 0.000000
									CHANNELS 3 Zrotation Yrotation Xrotation
									JOINT RightHandIndex1
									{
										OFFSET -0.622530 -0.000000 -0.000000
										CHANNELS 3 Zrotation Yrotation Xrotation
										End Site
										{
											OFFSET 0.000000 0.000000 0.000000
										}
									}
								}
								JOINT RThumb
								{
									OFFSET 0.000000 0.000000 0.000000
									CHANNELS 3 Zrotation Yrotation Xrotation
									End Site
									{
										OFFSET 0.000000 0.000000 0.000000
									}
								}
							}
						}
					}
				}
			}
		}
	}
}
MOTION
Frames: 5
Frame Time: 0.008333
-13.786302 18.289300 20.392182 179.891073 4.793878 -171.563367 -1.740318 -2.017284 -1.451509 -11.809874 -8.813235 -24.648817 11.710618 19.116003 66.084152 -0.242177 4.033254 8.908456 0.131100 2.333500 6.428200 2.445370 1.253135 0.307410 21.659043 0.665927 -19.938935 0.761931 -8.057111 22.287275 -3.808003 14.567869 6.950443 -4.086000 -12.273900 36.708000 -1.272852 -1.547613 -6.887581 1.413178 -2.349098 -3.348521 -0.826965 -0.861911 8.778661 -7.669284 -2.030499 -1.481534 11.616970 -4.826482 6.781599 4.501500 -2.041700 -1.618300 6.481997 -3.521751 1.405351 -95.173266 -5.504843 11.678548 8.882495 -15.522071 -1.325058 0.004686 -0.445560 31.940255 6.382085 9.062291 1.011800 -7.125000 0.000000 0.000000 -17.892100 38.858200 2.813900 -7.020862 2.548789 2.766743 92.886064 -6.797328 4.703644 -15.375008 27.875218 -3.612965 0.803388 -1.414083 29.733271 0.313194 -6.898544 0.115100 7.125000 0.000000 0.000000 21.110100 -35.330500 5.317000 
-13.742464 18.281329 20.215946 179.751696 5.871888 -171.549457 -1.701615 -2.087484 -1.583106 -11.659103 -10.275044 -26.015924 11.697130 19.199929 66.101261 -0.262985 3.648234 7.708966 0.080300 1.828200 5.031200 2.473652 1.214428 0.401234 21.583585 0.769587 -19.328771 0.742349 -8.016051 22.268946 -3.919549 15.464999 6.760490 -4.051300 -12.228300 36.544500 -1.396696 -1.409304 -6.970134 1.346345 -2.141466 -3.338778 -1.007252 -0.740765 8.771640 -7.478538 -2.046576 -1.264532 11.608594 -4.881853 6.971759 4.459400 -2.082600 -1.608900 6.464505 -3.505658 1.417590 -94.831902 -5.280492 12.355437 8.998974 -15.720718 -1.362561 0.012605 -0.451098 31.473249 6.194557 8.954048 0.968700 -7.125000 0.000000 0.000000 -18.025500 38.742300 2.890100 -7.038075 2.552351 2.779713 92.940627 -6.685486 5.244813 -15.572425 28.127221 -3.671190 0.805748 -1.424872 29.203161 0.192056 -6.864842 0.126800 7.125000 0.000000 0.000000 21.000700 -35.286300 5.310300 
-13.689770 18.259632 20.037385 -179.948230 7.102154 -171.619594 -1.670335 -2.140502 -1.694263 -10.928652 -11.394936 -27.209466 11.516795 19.204572 65.588819 -0.252322 3.105429 6.782593 0.046800 1.395700 3.838300 2.498872 1.167154 0.472990 21.964593 1.340431 -18.443814 0.698665 -8.025102 22.377585 -3.962741 16.108361 6.334587 -3.962400 -12.110300 36.123100 -1.120236 -1.221991 -6.876487 1.320271 -1.921214 -3.314614 -1.194260 -0.614275 8.823421 -7.254063 -2.268180 -1.705967 11.166312 -5.090021 7.682170 4.655900 -2.159500 -1.383800 6.482784 -3.419072 1.395057 -94.461396 -5.066227 13.264419 9.129256 -15.932117 -1.401012 0.015156 -0.455794 30.736001 6.278948 8.928539 0.980600 -7.125000 0.000000 0.000000 -17.950000 38.730000 2.882700 -7.016690 2.607758 2.768265 92.959703 -6.512878 5.895349 -15.810273 28.428480 -3.738373 0.814175 -1.422061 28.751647 0.279168 -6.721346 0.114700 7.125000 0.000000 0.000000 21.032300 -35.143100 5.397800 
-13.642611 18.231624 19.855060 -179.619221 8.433682 -171.696554 -1.651996 -2.194238 -1.802452 -10.178339 -12.465462 -28.168318 11.151473 19.125390 64.505193 -0.259250 2.835558 5.743484 0.052700 1.481300 4.074200 2.507737 1.120414 0.533112 22.362898 1.810859 -17.614582 0.630995 -8.084088 22.623890 -4.013858 16.919389 5.976376 -3.822100 -11.919800 35.449000 -0.772234 -1.020146 -6.769803 1.308024 -1.695741 -3.261248 -1.298540 -0.479948 9.000624 -7.375327 -2.310414 -2.150006 11.207978 -5.140645 8.039961 4.689600 -2.170500 -1.102700 6.473631 -3.365082 1.382544 -94.317272 -5.086616 13.396767 9.208913 -16.061247 -1.424501 0.014752 -0.453567 30.747220 6.492238 8.675148 0.988200 -7.125000 0.000000 0.000000 -17.705500 38.502400 2.943600 -7.002501 2.593896 2.754335 92.839077 -6.220736 6.544630 -16.039347 28.706521 -3.808174 0.820656 -1.418132 28.634930 0.362868 -6.641256 0.104900 7.125000 0.000000 0.000000 21.077200 -35.067100 5.452500 
-13.598331 18.202399 19.673620 -179.458196 9.797862 -171.730289 -1.641655 -2.248913 -1.900488 -9.555465 -13.598919 -29.029532 10.616339 18.961353 62.897878 -0.274271 2.770877 4.721114 0.061000 1.593900 4.384600 2.515850 1.075076 0.589539 22.545923 2.283466 -16.873149 0.550798 -8.172193 22.945725 -4.071623 17.740267 5.618280 -3.770900 -11.849200 35.200500 -0.566107 -0.797549 -6.711116 1.274054 -1.427117 -3.232519 -1.406370 -0.322748 9.026154 -7.421695 -2.278919 -2.116957 11.251760 -5.124872 8.217094 4.731600 -2.164500 -1.036100 6.456231 -3.343980 1.386358 -94.172164 -4.912588 13.509379 9.325980 -16.256218 -1.462136 0.018186 -0.452242 30.612391 6.577026 8.346801 0.965200 -7.125000 0.000000 0.000000 -17.552000 38.191800 3.055600 -7.000475 2.590575 2.762818 92.746102 -6.150243 7.159388 -16.288982 28.998011 -3.883072 0.823872 -1.416816 28.544257 0.381778 -6.553658 0.101600 7.125000 0.000000 0.000000 21.069400 -34.984800 5.495400 
